<svg width="14" height="17" viewBox="0 0 14 17" fill="none" xmlns="http://www.w3.org/2000/svg">
<path fill-rule="evenodd" clip-rule="evenodd" d="M4.25 0H1.51786C0.67919 0 0 0.68 0 1.51786V15.4821C0 16.32 0.68 17 1.51786 17H11.8393C12.6771 17 13.3571 16.32 13.3571 15.4821V9.10714C13.3571 8.30202 13.0373 7.52988 12.468 6.96057C11.8987 6.39126 11.1266 6.07143 10.3214 6.07143H8.80357C8.40101 6.07143 8.01494 5.91151 7.73028 5.62686C7.44563 5.34221 7.28571 4.95613 7.28571 4.55357V3.03571C7.28571 2.23059 6.96588 1.45845 6.39657 0.88914C5.82727 0.319833 5.05512 0 4.25 0ZM9.60095 8.85295C9.64952 8.78823 9.68467 8.71446 9.70432 8.63596C9.72397 8.55746 9.72773 8.47583 9.71538 8.39586C9.70303 8.31589 9.67482 8.23919 9.63241 8.17028C9.58999 8.10137 9.53423 8.04163 9.4684 7.99457C9.40257 7.94752 9.32799 7.9141 9.24906 7.89628C9.17013 7.87846 9.08843 7.8766 9.00877 7.8908C8.9291 7.90501 8.85309 7.93499 8.78518 7.979C8.71727 8.023 8.65884 8.08014 8.61333 8.14705L5.99371 11.8142L4.67905 10.4995C4.56395 10.3923 4.41173 10.3339 4.25443 10.3367C4.09714 10.3394 3.94707 10.4032 3.83583 10.5144C3.72459 10.6256 3.66087 10.7757 3.6581 10.933C3.65532 11.0903 3.71371 11.2425 3.82095 11.3576L5.64238 13.179C5.70471 13.2413 5.77984 13.2893 5.86256 13.3196C5.94529 13.3499 6.03362 13.3619 6.12143 13.3547C6.20924 13.3474 6.29442 13.3212 6.37106 13.2777C6.4477 13.2342 6.51396 13.1746 6.56524 13.103L9.60095 8.85295Z" fill="white"/>
<path d="M7.4646 0.255371C8.13368 1.02682 8.5014 2.0141 8.49998 3.03528V4.55313C8.49998 4.7207 8.63598 4.8567 8.80355 4.8567H10.3214C11.3426 4.85529 12.3299 5.223 13.1013 5.89209C12.745 4.53759 12.0354 3.30201 11.045 2.31165C10.0547 1.32129 8.81909 0.611686 7.4646 0.255371Z" fill="white"/>
</svg>
