<svg width="22" height="22" viewBox="0 0 22 22" fill="none" xmlns="http://www.w3.org/2000/svg">
<path fill-rule="evenodd" clip-rule="evenodd" d="M14.9249 0.6875C15.3046 0.6875 15.6124 0.995304 15.6124 1.375V2.75H15.8416C17.8666 2.75 19.5083 4.39162 19.5083 6.41667V16.0417C19.5083 18.0667 17.8666 19.7083 15.8416 19.7083H6.67494C4.64989 19.7083 3.00827 18.0667 3.00827 16.0417V6.41667C3.00827 4.39162 4.64989 2.75 6.67494 2.75H6.9041V1.375C6.9041 0.995304 7.21191 0.6875 7.5916 0.6875C7.9713 0.6875 8.2791 0.995304 8.2791 1.375V2.75H14.2374V1.375C14.2374 0.995304 14.5452 0.6875 14.9249 0.6875ZM16.5291 11.4583C16.5291 11.838 16.2213 12.1458 15.8416 12.1458H10.3416C9.96191 12.1458 9.6541 11.838 9.6541 11.4583C9.6541 11.0786 9.96191 10.7708 10.3416 10.7708H15.8416C16.2213 10.7708 16.5291 11.0786 16.5291 11.4583ZM15.8416 8.47917C16.2213 8.47917 16.5291 8.17136 16.5291 7.79167C16.5291 7.41197 16.2213 7.10417 15.8416 7.10417H10.3416C9.96191 7.10417 9.6541 7.41197 9.6541 7.79167C9.6541 8.17136 9.96191 8.47917 10.3416 8.47917H15.8416ZM16.5291 15.125C16.5291 15.5047 16.2213 15.8125 15.8416 15.8125H10.3416C9.96191 15.8125 9.6541 15.5047 9.6541 15.125C9.6541 14.7453 9.96191 14.4375 10.3416 14.4375H15.8416C16.2213 14.4375 16.5291 14.7453 16.5291 15.125ZM8.04994 7.79167C8.04994 8.29793 7.63953 8.70833 7.13327 8.70833C6.62701 8.70833 6.2166 8.29793 6.2166 7.79167C6.2166 7.28541 6.62701 6.875 7.13327 6.875C7.63953 6.875 8.04994 7.28541 8.04994 7.79167ZM7.13327 12.375C7.63953 12.375 8.04994 11.9646 8.04994 11.4583C8.04994 10.9521 7.63953 10.5417 7.13327 10.5417C6.62701 10.5417 6.2166 10.9521 6.2166 11.4583C6.2166 11.9646 6.62701 12.375 7.13327 12.375ZM8.04994 15.125C8.04994 15.6313 7.63953 16.0417 7.13327 16.0417C6.62701 16.0417 6.2166 15.6313 6.2166 15.125C6.2166 14.6187 6.62701 14.2083 7.13327 14.2083C7.63953 14.2083 8.04994 14.6187 8.04994 15.125Z" fill="#333333"/>
</svg>
