<svg width="20" height="21" viewBox="0 0 20 21" fill="none" xmlns="http://www.w3.org/2000/svg">
<path d="M17.5112 11.2001C17.1566 11.2001 16.8596 10.9317 16.8212 10.5772C16.5912 8.46883 15.4604 6.57133 13.7162 5.36383C13.4 5.14341 13.3233 4.71216 13.5437 4.39591C13.7641 4.07966 14.1954 4.003 14.5116 4.22341C16.5912 5.6705 17.9329 7.93216 18.2108 10.4334C18.2491 10.8167 17.9712 11.1617 17.5879 11.2001C17.5591 11.2001 17.54 11.2001 17.5112 11.2001Z" fill="white"/>
<path d="M1.58416 11.2473C1.56499 11.2473 1.53624 11.2473 1.51708 11.2473C1.13374 11.209 0.855825 10.864 0.894158 10.4807C1.15291 7.97941 2.47541 5.71774 4.53583 4.26108C4.84249 4.04066 5.28332 4.11733 5.50374 4.42399C5.72416 4.74024 5.64749 5.17149 5.34082 5.39191C3.61582 6.61858 2.49457 8.51608 2.28374 10.6148C2.24541 10.979 1.93874 11.2473 1.58416 11.2473Z" fill="white"/>
<path d="M13.3234 19.2205C12.1447 19.7859 10.8797 20.0734 9.55717 20.0734C8.17717 20.0734 6.86425 19.7668 5.63759 19.1438C5.29259 18.9809 5.15842 18.5593 5.33092 18.2143C5.49384 17.8693 5.9155 17.7351 6.2605 17.898C6.86425 18.2047 7.50634 18.4155 8.158 18.5401C9.03967 18.7126 9.9405 18.7222 10.8222 18.5688C11.4738 18.4538 12.1159 18.2526 12.7101 17.9651C13.0647 17.8022 13.4863 17.9363 13.6397 18.2909C13.8122 18.6359 13.678 19.0576 13.3234 19.2205Z" fill="white"/>
<path d="M9.5482 0.925781C8.06279 0.925781 6.8457 2.13328 6.8457 3.62828C6.8457 5.12328 8.0532 6.33078 9.5482 6.33078C11.0432 6.33078 12.2507 5.12328 12.2507 3.62828C12.2507 2.13328 11.0432 0.925781 9.5482 0.925781Z" fill="white"/>
<path d="M2.83922 12.292C1.3538 12.292 0.136719 13.4995 0.136719 14.9945C0.136719 16.4895 1.34422 17.697 2.83922 17.697C4.33422 17.697 5.54172 16.4895 5.54172 14.9945C5.54172 13.4995 4.32464 12.292 2.83922 12.292Z" fill="white"/>
<path d="M16.333 12.292C14.7528 12.292 13.458 13.5766 13.458 15.167C13.458 16.7574 14.7426 18.042 16.333 18.042C17.9234 18.042 19.208 16.7574 19.208 15.167C19.208 13.5766 17.9234 12.292 16.333 12.292Z" fill="white"/>
</svg>
